<svg width="1819" height="288" viewBox="0 0 1819 288" fill="none" xmlns="http://www.w3.org/2000/svg">
<path d="M130.472 150.452C139.896 151.94 148.452 155.784 156.14 161.984C164.076 168.184 170.276 175.872 174.74 185.048C179.452 194.224 181.808 204.02 181.808 214.436C181.808 227.58 178.46 239.484 171.764 250.148C165.068 260.564 155.272 268.872 142.376 275.072C129.728 281.024 114.724 284 97.364 284H0.644003V24.716H93.644C111.252 24.716 126.256 27.692 138.656 33.644C151.056 39.348 160.356 47.16 166.556 57.08C172.756 67 175.856 78.16 175.856 90.56C175.856 105.936 171.64 118.708 163.208 128.876C155.024 138.796 144.112 145.988 130.472 150.452ZM34.496 136.688H91.412C107.284 136.688 119.56 132.968 128.24 125.528C136.92 118.088 141.26 107.796 141.26 94.652C141.26 81.508 136.92 71.216 128.24 63.776C119.56 56.336 107.036 52.616 90.668 52.616H34.496V136.688ZM94.388 256.1C111.252 256.1 124.396 252.132 133.82 244.196C143.244 236.26 147.956 225.224 147.956 211.088C147.956 196.704 142.996 185.42 133.076 177.236C123.156 168.804 109.888 164.588 93.272 164.588H34.496V256.1H94.388ZM262.637 113.252C268.589 101.596 277.021 92.544 287.933 86.096C299.093 79.648 312.609 76.424 328.481 76.424V111.392H319.553C281.609 111.392 262.637 131.976 262.637 173.144V284H228.785V80.144H262.637V113.252ZM553.558 174.26C553.558 180.708 553.186 187.528 552.442 194.72H389.506C390.746 214.808 397.566 230.556 409.966 241.964C422.614 253.124 437.866 258.704 455.722 258.704C470.354 258.704 482.506 255.356 492.178 248.66C502.098 241.716 509.042 232.54 513.01 221.132H549.466C544.01 240.724 533.098 256.72 516.73 269.12C500.362 281.272 480.026 287.348 455.722 287.348C436.378 287.348 419.018 283.008 403.642 274.328C388.514 265.648 376.61 253.372 367.93 237.5C359.25 221.38 354.91 202.78 354.91 181.7C354.91 160.62 359.126 142.144 367.558 126.272C375.99 110.4 387.77 98.248 402.898 89.816C418.274 81.136 435.882 76.796 455.722 76.796C475.066 76.796 492.178 81.012 507.058 89.444C521.938 97.876 533.346 109.532 541.282 124.412C549.466 139.044 553.558 155.66 553.558 174.26ZM518.59 167.192C518.59 154.296 515.738 143.26 510.034 134.084C504.33 124.66 496.518 117.592 486.598 112.88C476.926 107.92 466.138 105.44 454.234 105.44C437.122 105.44 422.49 110.896 410.338 121.808C398.434 132.72 391.614 147.848 389.878 167.192H518.59ZM639.534 108.044V228.2C639.534 238.12 641.642 245.188 645.858 249.404C650.074 253.372 657.39 255.356 667.806 255.356H692.73V284H662.226C643.378 284 629.242 279.66 619.818 270.98C610.394 262.3 605.682 248.04 605.682 228.2V108.044H579.27V80.144H605.682V28.808H639.534V80.144H692.73V108.044H639.534ZM834.93 76.424C850.306 76.424 864.194 79.772 876.594 86.468C888.994 92.916 898.666 102.712 905.61 115.856C912.802 129 916.398 144.996 916.398 163.844V284H882.918V168.68C882.918 148.344 877.834 132.844 867.666 122.18C857.498 111.268 843.61 105.812 826.002 105.812C808.146 105.812 793.886 111.392 783.222 122.552C772.806 133.712 767.598 149.956 767.598 171.284V284H733.746V8.72H767.598V109.16C774.294 98.744 783.47 90.684 795.126 84.98C807.03 79.276 820.298 76.424 834.93 76.424ZM1157.69 174.26C1157.69 180.708 1157.32 187.528 1156.58 194.72H993.643C994.883 214.808 1001.7 230.556 1014.1 241.964C1026.75 253.124 1042 258.704 1059.86 258.704C1074.49 258.704 1086.64 255.356 1096.31 248.66C1106.23 241.716 1113.18 232.54 1117.15 221.132H1153.6C1148.15 240.724 1137.23 256.72 1120.87 269.12C1104.5 281.272 1084.16 287.348 1059.86 287.348C1040.51 287.348 1023.15 283.008 1007.78 274.328C992.651 265.648 980.747 253.372 972.067 237.5C963.387 221.38 959.047 202.78 959.047 181.7C959.047 160.62 963.263 142.144 971.695 126.272C980.127 110.4 991.907 98.248 1007.03 89.816C1022.41 81.136 1040.02 76.796 1059.86 76.796C1079.2 76.796 1096.31 81.012 1111.19 89.444C1126.07 97.876 1137.48 109.532 1145.42 124.412C1153.6 139.044 1157.69 155.66 1157.69 174.26ZM1122.73 167.192C1122.73 154.296 1119.87 143.26 1114.17 134.084C1108.47 124.66 1100.65 117.592 1090.73 112.88C1081.06 107.92 1070.27 105.44 1058.37 105.44C1041.26 105.44 1026.63 110.896 1014.47 121.808C1002.57 132.72 995.751 147.848 994.015 167.192H1122.73ZM1236.23 113.252C1242.18 101.596 1250.61 92.544 1261.53 86.096C1272.69 79.648 1286.2 76.424 1302.07 76.424V111.392H1293.15C1255.2 111.392 1236.23 131.976 1236.23 173.144V284H1202.38V80.144H1236.23V113.252ZM1358.64 47.036C1352.19 47.036 1346.73 44.804 1342.27 40.34C1337.8 35.876 1335.57 30.42 1335.57 23.972C1335.57 17.524 1337.8 12.068 1342.27 7.60399C1346.73 3.13999 1352.19 0.907986 1358.64 0.907986C1364.84 0.907986 1370.04 3.13999 1374.26 7.60399C1378.72 12.068 1380.96 17.524 1380.96 23.972C1380.96 30.42 1378.72 35.876 1374.26 40.34C1370.04 44.804 1364.84 47.036 1358.64 47.036ZM1375 80.144V284H1341.15V80.144H1375ZM1420.05 181.7C1420.05 160.62 1424.27 142.268 1432.7 126.644C1441.13 110.772 1452.79 98.496 1467.67 89.816C1482.79 81.136 1500.03 76.796 1519.37 76.796C1544.42 76.796 1565.01 82.872 1581.13 95.024C1597.49 107.176 1608.28 124.04 1613.49 145.616H1577.03C1573.56 133.216 1566.74 123.42 1556.57 116.228C1546.65 109.036 1534.25 105.44 1519.37 105.44C1500.03 105.44 1484.41 112.136 1472.5 125.528C1460.6 138.672 1454.65 157.396 1454.65 181.7C1454.65 206.252 1460.6 225.224 1472.5 238.616C1484.41 252.008 1500.03 258.704 1519.37 258.704C1534.25 258.704 1546.65 255.232 1556.57 248.288C1566.49 241.344 1573.31 231.424 1577.03 218.528H1613.49C1608.03 239.36 1597.12 256.1 1580.75 268.748C1564.39 281.148 1543.93 287.348 1519.37 287.348C1500.03 287.348 1482.79 283.008 1467.67 274.328C1452.79 265.648 1441.13 253.372 1432.7 237.5C1424.27 221.628 1420.05 203.028 1420.05 181.7ZM1772.49 284L1692.51 193.976V284H1658.66V8.72H1692.51V170.54L1771 80.144H1818.25L1722.27 181.7L1818.62 284H1772.49Z" fill="white"/>
</svg>
