<svg width="889" height="304" viewBox="0 0 889 304" fill="none" xmlns="http://www.w3.org/2000/svg">
<path d="M156.216 28.716H168.216V16.716H156.216V28.716ZM136.5 271.632L144.821 280.279L144.863 280.238L144.904 280.198L136.5 271.632ZM31.968 271.26L23.4827 279.745L23.5231 279.786L23.5639 279.826L31.968 271.26ZM12.252 217.692V205.692H0.252V217.692H12.252ZM46.104 217.692L58.1017 217.457L57.871 205.692H46.104V217.692ZM55.776 248.568L46.3197 255.956L46.3903 256.046L46.4626 256.135L55.776 248.568ZM112.692 249.312L121.911 256.994L121.972 256.92L122.033 256.845L112.692 249.312ZM121.992 28.716V16.716H109.992V28.716H121.992ZM144.216 28.716V220.296H168.216V28.716H144.216ZM144.216 220.296C144.216 238.955 138.573 252.787 128.096 263.066L144.904 280.198C160.715 264.685 168.216 244.293 168.216 220.296H144.216ZM128.179 262.985C117.673 273.095 103.5 278.604 84.42 278.604V302.604C108.492 302.604 129.039 295.465 144.821 280.279L128.179 262.985ZM84.42 278.604C65.1154 278.604 50.8636 272.988 40.3721 262.694L23.5639 279.826C39.3604 295.324 60.0766 302.604 84.42 302.604V278.604ZM40.4533 262.775C30.0261 252.348 24.252 237.804 24.252 217.692H0.252C0.252 242.716 7.62189 263.884 23.4827 279.745L40.4533 262.775ZM12.252 229.692H46.104V205.692H12.252V229.692ZM34.1063 217.927C34.392 232.498 38.1505 245.499 46.3197 255.956L65.2323 241.18C61.0015 235.765 58.312 228.182 58.1017 217.457L34.1063 217.927ZM46.4626 256.135C55.7221 267.531 69.0979 272.472 84.42 272.472V248.472C74.4461 248.472 68.7259 245.477 65.0894 241.001L46.4626 256.135ZM84.42 272.472C99.4608 272.472 112.776 267.956 121.911 256.994L103.473 241.63C100.208 245.548 94.6752 248.472 84.42 248.472V272.472ZM122.033 256.845C130.251 246.654 133.992 234.178 133.992 220.296H109.992C109.992 229.726 107.533 236.594 103.351 241.779L122.033 256.845ZM133.992 220.296V28.716H109.992V220.296H133.992ZM121.992 40.716H156.216V16.716H121.992V40.716ZM222.906 130.644L233.466 136.343L233.485 136.309L233.503 136.274L222.906 130.644ZM257.502 93.816L251.455 83.4507L251.417 83.4729L251.379 83.4953L257.502 93.816ZM353.478 92.328L347.419 102.686L353.478 92.328ZM382.866 121.344L372.365 127.153L394.866 121.344H382.866ZM382.866 84.144V72.144H370.866V84.144H382.866ZM417.09 84.144H429.09V72.144H417.09V84.144ZM417.09 288V300H429.09V288H417.09ZM382.866 288H370.866V300H382.866V288ZM382.866 250.056H394.866V204.246L372.407 244.173L382.866 250.056ZM352.734 279.816L358.792 290.174L358.822 290.157L358.851 290.139L352.734 279.816ZM257.502 277.956L251.251 288.2L257.502 277.956ZM222.906 240.384L233.539 234.822L222.906 240.384ZM348.27 119.484L342.132 129.796L342.275 129.881L342.421 129.962L348.27 119.484ZM279.078 119.112L273.124 108.693V108.693L279.078 119.112ZM254.154 145.152L264.697 150.882L254.154 145.152ZM254.154 226.248L243.559 231.883L243.585 231.931L243.61 231.978L254.154 226.248ZM279.078 252.66L272.94 262.972L273.032 263.026L273.124 263.079L279.078 252.66ZM348.27 252.66L354.223 263.079L354.262 263.057L354.301 263.034L348.27 252.66ZM373.566 226.248L384.109 231.978L384.135 231.931L384.16 231.883L373.566 226.248ZM222.258 185.328C222.258 166.14 226.131 149.935 233.466 136.343L212.345 124.945C202.817 142.601 198.258 162.852 198.258 185.328H222.258ZM233.503 136.274C240.963 122.232 250.994 111.629 263.624 104.137L251.379 83.4953C234.745 93.3631 221.713 107.312 212.308 125.014L233.503 136.274ZM263.548 104.181C276.498 96.6273 290.886 92.796 306.978 92.796V68.796C286.862 68.796 268.265 73.6447 251.455 83.4507L263.548 104.181ZM306.978 92.796C323.075 92.796 336.409 96.2464 347.419 102.686L359.536 81.9697C344.258 73.0336 326.592 68.796 306.978 68.796V92.796ZM347.419 102.686C358.972 109.444 367.104 117.643 372.365 127.153L393.366 115.535C385.731 101.733 374.272 90.5884 359.536 81.9697L347.419 102.686ZM394.866 121.344V84.144H370.866V121.344H394.866ZM382.866 96.144H417.09V72.144H382.866V96.144ZM405.09 84.144V288H429.09V84.144H405.09ZM417.09 276H382.866V300H417.09V276ZM394.866 288V250.056H370.866V288H394.866ZM372.407 244.173C366.881 253.997 358.454 262.478 346.616 269.492L358.851 290.139C373.798 281.282 385.459 269.923 393.325 255.939L372.407 244.173ZM346.675 269.458C335.64 275.912 322.422 279.348 306.606 279.348V303.348C326.006 303.348 343.539 299.096 358.792 290.174L346.675 269.458ZM306.606 279.348C290.578 279.348 276.394 275.426 263.752 267.712L251.251 288.2C267.873 298.342 286.426 303.348 306.606 303.348V279.348ZM263.752 267.712C251.094 259.989 241.026 249.136 233.539 234.822L212.273 245.946C221.649 263.872 234.646 278.067 251.251 288.2L263.752 267.712ZM233.539 234.822C226.117 220.633 222.258 204.232 222.258 185.328H198.258C198.258 207.592 202.831 227.895 212.273 245.946L233.539 234.822ZM394.866 185.7C394.866 168.691 391.427 153.258 384.109 139.794L363.022 151.254C368.105 160.606 370.866 171.957 370.866 185.7H394.866ZM384.109 139.794C376.897 126.523 366.892 116.135 354.118 109.006L342.421 129.962C350.976 134.737 357.835 141.709 363.022 151.254L384.109 139.794ZM354.408 109.172C342.052 101.818 328.384 98.184 313.674 98.184V122.184C324.259 122.184 333.655 124.75 342.132 129.796L354.408 109.172ZM313.674 98.184C299.055 98.184 285.453 101.648 273.124 108.693L285.031 129.531C293.535 124.672 302.996 122.184 313.674 122.184V98.184ZM273.124 108.693C260.613 115.842 250.784 126.222 243.61 139.422L264.697 150.882C269.924 141.266 276.71 134.286 285.031 129.531L273.124 108.693ZM243.61 139.422C236.293 152.886 232.854 168.319 232.854 185.328H256.854C256.854 171.585 259.615 160.234 264.697 150.882L243.61 139.422ZM232.854 185.328C232.854 202.557 236.281 218.2 243.559 231.883L264.748 220.613C259.626 210.984 256.854 199.347 256.854 185.328H232.854ZM243.61 231.978C250.764 245.142 260.538 255.589 272.94 262.972L285.216 242.348C276.785 237.331 269.943 230.17 264.697 220.518L243.61 231.978ZM273.124 263.079C285.453 270.124 299.055 273.588 313.674 273.588V249.588C302.996 249.588 293.535 247.1 285.031 242.241L273.124 263.079ZM313.674 273.588C328.292 273.588 341.895 270.124 354.223 263.079L342.316 242.241C333.813 247.1 324.351 249.588 313.674 249.588V273.588ZM354.301 263.034C366.968 255.67 376.917 245.212 384.109 231.978L363.022 220.518C357.815 230.1 350.899 237.25 342.238 242.286L354.301 263.034ZM384.16 231.883C391.424 218.227 394.866 202.717 394.866 185.7H370.866C370.866 199.435 368.107 210.957 362.971 220.613L384.16 231.883ZM474.296 130.644L484.857 136.343L484.875 136.309L484.894 136.274L474.296 130.644ZM509.264 93.816L503.292 83.4076L503.255 83.429L503.218 83.4506L509.264 93.816ZM622.724 99.024L615.501 108.606L615.536 108.633L615.571 108.659L622.724 99.024ZM655.088 149.616V161.616H670.33L666.753 146.8L655.088 149.616ZM618.632 149.616L607.077 152.852L609.531 161.616H618.632V149.616ZM598.172 120.228L591.129 129.943L591.186 129.984L591.243 130.025L598.172 120.228ZM514.1 129.528L522.995 137.583L523.032 137.542L523.069 137.5L514.1 129.528ZM514.1 242.616L523.069 234.644L514.1 242.616ZM598.172 252.288L605.054 262.119L598.172 252.288ZM618.632 222.528V210.528H609.605L607.102 219.202L618.632 222.528ZM655.088 222.528L666.697 225.568L670.636 210.528H655.088V222.528ZM622.352 272.748L629.599 282.313L629.644 282.278L629.69 282.243L622.352 272.748ZM509.264 278.328L503.218 288.693L503.255 288.715L503.292 288.736L509.264 278.328ZM474.296 241.5L463.699 247.13L474.296 241.5ZM473.648 185.7C473.648 166.237 477.532 149.916 484.857 136.343L463.736 124.945C454.197 142.62 449.648 163.003 449.648 185.7H473.648ZM484.894 136.274C492.326 122.283 502.444 111.687 515.311 104.181L503.218 83.4506C486.324 93.3052 473.13 107.261 463.699 125.014L484.894 136.274ZM515.236 104.224C528.354 96.6979 543.49 92.796 560.972 92.796V68.796C539.767 68.796 520.431 73.5741 503.292 83.4076L515.236 104.224ZM560.972 92.796C584.053 92.796 601.92 98.3687 615.501 108.606L629.948 89.4417C611.288 75.3752 587.988 68.796 560.972 68.796V92.796ZM615.571 108.659C629.477 118.983 638.812 133.327 643.423 152.432L666.753 146.8C660.949 122.753 648.707 103.369 629.878 89.3891L615.571 108.659ZM655.088 137.616H618.632V161.616H655.088V137.616ZM630.188 146.38C626 131.425 617.601 119.272 605.102 110.431L591.243 130.025C599.08 135.568 604.32 143.007 607.077 152.852L630.188 146.38ZM605.216 110.513C592.841 101.541 577.829 97.44 560.972 97.44V121.44C573.876 121.44 583.664 124.531 591.129 129.943L605.216 110.513ZM560.972 97.44C538.508 97.44 519.509 105.381 505.131 121.556L523.069 137.5C532.5 126.891 544.749 121.44 560.972 121.44V97.44ZM505.206 121.473C490.665 137.528 484.244 159.531 484.244 185.7H508.244C508.244 163.261 513.728 147.816 522.995 137.583L505.206 121.473ZM484.244 185.7C484.244 212.097 490.653 234.3 505.131 250.588L523.069 234.644C513.739 224.148 508.244 208.407 508.244 185.7H484.244ZM505.131 250.588C519.509 266.763 538.508 274.704 560.972 274.704V250.704C544.749 250.704 532.5 245.253 523.069 234.644L505.131 250.588ZM560.972 274.704C577.744 274.704 592.695 270.77 605.054 262.119L591.291 242.457C583.81 247.694 573.961 250.704 560.972 250.704V274.704ZM605.054 262.119C617.467 253.429 625.77 241.082 630.162 225.854L607.102 219.202C604.055 229.766 598.717 237.259 591.291 242.457L605.054 262.119ZM618.632 234.528H655.088V210.528H618.632V234.528ZM643.48 219.488C638.666 237.868 629.195 252.296 615.015 263.253L629.69 282.243C648.246 267.904 660.599 248.852 666.697 225.568L643.48 219.488ZM615.106 263.183C601.208 273.712 583.436 279.348 560.972 279.348V303.348C587.613 303.348 610.76 296.584 629.599 282.313L615.106 263.183ZM560.972 279.348C543.49 279.348 528.354 275.446 515.236 267.92L503.292 288.736C520.431 298.57 539.767 303.348 560.972 303.348V279.348ZM515.311 267.963C502.444 260.457 492.326 249.861 484.894 235.87L463.699 247.13C473.13 264.883 486.324 278.839 503.218 288.693L515.311 267.963ZM484.894 235.87C477.54 222.028 473.648 205.431 473.648 185.7H449.648C449.648 208.625 454.188 229.228 463.699 247.13L484.894 235.87ZM814.089 288L805.118 295.97L808.699 300H814.089V288ZM734.109 197.976L743.08 190.006L722.109 166.401V197.976H734.109ZM734.109 288V300H746.109V288H734.109ZM700.257 288H688.257V300H700.257V288ZM700.257 12.72V0.719996H688.257V12.72H700.257ZM734.109 12.72H746.109V0.719996H734.109V12.72ZM734.109 174.54H722.109V206.663L743.17 182.408L734.109 174.54ZM812.601 84.144V72.144H807.129L803.54 76.2763L812.601 84.144ZM859.845 84.144L868.567 92.3863L887.697 72.144H859.845V84.144ZM763.869 185.7L755.148 177.458L747.372 185.686L755.134 193.927L763.869 185.7ZM860.217 288V300H888.003L868.953 279.773L860.217 288ZM823.06 280.03L743.08 190.006L725.138 205.946L805.118 295.97L823.06 280.03ZM722.109 197.976V288H746.109V197.976H722.109ZM734.109 276H700.257V300H734.109V276ZM712.257 288V12.72H688.257V288H712.257ZM700.257 24.72H734.109V0.719996H700.257V24.72ZM722.109 12.72V174.54H746.109V12.72H722.109ZM743.17 182.408L821.662 92.0117L803.54 76.2763L725.048 166.672L743.17 182.408ZM812.601 96.144H859.845V72.144H812.601V96.144ZM851.124 75.9017L755.148 177.458L772.591 193.942L868.567 92.3863L851.124 75.9017ZM755.134 193.927L851.482 296.227L868.953 279.773L772.605 177.473L755.134 193.927ZM860.217 276H814.089V300H860.217V276Z" fill="white"/>
</svg>
